<?xml version="1.0" encoding="UTF-8"?>
<svg id="Layer_2" data-name="Layer 2" xmlns="http://www.w3.org/2000/svg" viewBox="0 0 576 576">
  <path d="M24.9,236.31c-13.53,20.19-21.21,46.11-20.4,79.05.96,39.13,8.79,70.51,20.4,95.62v165.02H-16.03V0H24.9v236.31Z" fill="#231f20"/>
  <path d="M105.93,0v182.09c-14.62,4.24-28.47,9.89-40.93,17.23V0h40.93Z" fill="#231f20"/>
  <path d="M65,466.4c13.63,12.57,27.92,21.65,40.93,28.15v81.44h-40.93v-109.6Z" fill="#231f20"/>
  <path d="M186.95,0v170.85c-13.61.26-27.37,1.2-40.93,2.99V0h40.93Z" fill="#231f20"/>
  <path d="M511.03,373.96c-12.72,5.2-26.36,9.11-40.93,11.76-12.67,2.32-26.05,3.67-40.1,4.06-13.06.39-26.72-.08-40.93-1.35-12.91-1.17-26.28-3.02-40.1-5.57-13.24-2.37-26.88-5.41-40.93-9.08-10.15-2.63-20.5-5.59-31.07-8.87-3.07-.96-6.09-1.85-9-2.71-15.51-4.53-29.06-7.65-40.93-9.63-16.31-2.73-29.43-3.28-40.1-2.29-21.91,2.03-33.49,10.51-40.93,19.98-6.64,8.4-9.99,17.59-14.44,23.73-9.68,13.4-2.37,44.29,14.44,66.69,7.52,10.04,16.94,18.37,27.58,22.69l-20.48,26.93s-2.6-.34-7.1-1.33c-8.3-1.85-23.11-5.93-40.1-14.42-13.01-6.5-27.29-15.59-40.93-28.15-14.99-13.82-29.19-31.87-40.1-55.42-11.6-25.11-19.44-56.49-20.4-95.62-.81-32.94,6.87-58.86,20.4-79.05,10.33-15.48,24.09-27.63,40.1-37,12.46-7.34,26.31-12.98,40.93-17.23,12.88-3.77,26.36-6.45,40.1-8.25,13.56-1.8,27.32-2.73,40.93-2.99,13.63-.26,27.11.16,40.1,1.01,14.47.99,28.28,2.58,40.93,4.5,15.38,2.32,29.04,5.13,40.07,7.96,2.34.6,4.55,1.2,6.64,1.8,11.32,3.23,22.82,6.87,34.29,10.72,13.45,4.48,26.9,9.19,40.1,13.79,14.05,4.92,27.79,9.71,40.93,13.89,14.21,4.53,27.71,8.4,40.1,11.01l-32.52,23.91,48.11,11.6-68.82,22.46,73.69,13.37-47.62,18.01,47.62,13.4-32.26,28.05,52.74,7.62Z" fill="#f99e23" stroke="#231f20" stroke-miterlimit="10"/>
  <path d="M592.03,271.05v3.82c-.44,22.25-7.83,46.19-28.54,65.67-3.96,3.72-8.07,7.23-12.36,10.49-12.1,9.34-25.47,16.99-40.1,22.92l-52.74-7.62,32.26-28.05-47.62-13.4,47.62-18.01-73.69-13.37,68.82-22.46-48.11-11.6,32.52-23.91c15.66,3.38,29.58,4.76,40.93,3.02,1.35-.18,2.68-.44,3.98-.73,19.83-4.58,30.05-7,36.12-10.33,6.79-3.69,8.38-8.53,12.36-18.76,4.81-12.33,27.92,21.47,28.54,62.32Z" fill="#fff" stroke="#231f20" stroke-miterlimit="10"/>
  <path d="M186.95,350.28v225.72h-40.93v-67.03c4.5.99,7.1,1.33,7.1,1.33l20.48-26.93c-10.64-4.32-20.06-12.65-27.58-22.69v-90.42c7.44-9.47,19.02-17.95,40.93-19.98Z" fill="#231f20"/>
  <path d="M267.98,0v176.36c-12.65-1.93-26.46-3.51-40.93-4.5V0h40.93Z" fill="#231f20"/>
  <path d="M227.05,352.57c11.87,1.98,25.42,5.1,40.93,9.63v213.8h-40.93v-223.43Z" fill="#231f20"/>
  <path d="M348.98,0v196.84c-11.47-3.85-22.98-7.49-34.29-10.72-2.08-.6-4.29-1.2-6.64-1.8V0h40.93Z" fill="#231f20"/>
  <path d="M308.05,373.77c14.05,3.67,27.69,6.71,40.93,9.08v193.14h-40.93v-202.23Z" fill="#231f20"/>
  <path d="M430,0v224.52c-13.14-4.19-26.88-8.98-40.93-13.89V0h40.93Z" fill="#231f20"/>
  <path d="M430,389.78v186.22h-40.93v-187.58c14.21,1.27,27.87,1.74,40.93,1.35Z" fill="#231f20"/>
  <path d="M511.03,0v238.55c-11.34,1.74-25.27.36-40.93-3.02V0h40.93Z" fill="#231f20"/>
  <path d="M511.03,373.96v202.04h-40.93v-190.28c14.57-2.65,28.21-6.56,40.93-11.76Z" fill="#231f20"/>
  <path d="M592.03,0v271.05c-.62-40.85-23.73-74.65-28.54-62.32-3.98,10.23-5.57,15.07-12.36,18.76V0h40.9Z" fill="#231f20"/>
  <path d="M592.03,274.87v301.13h-40.9v-224.97c4.29-3.25,8.4-6.77,12.36-10.49,20.71-19.49,28.1-43.43,28.54-65.67Z" fill="#231f20"/>
</svg>